<?xml version="1.0" standalone="no"?>
<!DOCTYPE svg PUBLIC "-//W3C//DTD SVG 20010904//EN"
 "http://www.w3.org/TR/2001/REC-SVG-20010904/DTD/svg10.dtd">
<svg version="1.0" xmlns="http://www.w3.org/2000/svg"
 width="1479.000000pt" height="403.000000pt" viewBox="0 0 1479.000000 403.000000"
 preserveAspectRatio="xMidYMid meet">
<metadata>
Created by potrace 1.16, written by Peter Selinger 2001-2019
</metadata>
<g transform="translate(0.000000,403.000000) scale(0.100000,-0.100000)"
fill="#000000" stroke="none">
<path d="M4900 1860 l0 -1860 65 0 65 0 0 1860 0 1860 -65 0 -65 0 0 -1860z"/>
<path d="M9135 3254 c-72 -26 -115 -86 -115 -159 0 -81 42 -131 185 -215 50
-30 105 -69 123 -86 29 -29 33 -39 30 -75 -4 -59 -40 -84 -116 -83 -96 1 -148
43 -173 142 -8 31 -16 42 -30 42 -17 0 -19 -8 -19 -76 0 -70 2 -78 28 -104 56
-55 211 -77 319 -45 131 39 174 192 80 285 -18 18 -79 60 -136 94 -133 78
-161 104 -161 148 0 45 23 75 68 89 86 25 178 -34 203 -131 9 -37 18 -50 31
-50 16 0 18 9 18 76 0 70 -2 78 -28 104 -55 54 -215 78 -307 44z"/>
<path d="M11111 3255 c-75 -23 -121 -84 -121 -159 0 -83 33 -121 187 -217 132
-82 155 -107 151 -162 -4 -57 -41 -82 -116 -81 -96 1 -148 43 -173 142 -8 31
-16 42 -30 42 -17 0 -19 -8 -19 -76 0 -70 2 -78 28 -104 56 -55 211 -77 319
-45 130 39 174 192 82 285 -16 16 -80 60 -142 97 -130 78 -157 104 -157 147 0
69 68 108 150 86 60 -16 104 -62 120 -127 10 -40 18 -53 32 -53 16 0 18 9 18
79 0 76 -1 80 -30 105 -62 52 -203 71 -299 41z"/>
<path d="M7130 3247 c0 -6 14 -18 30 -25 36 -16 61 -67 201 -405 129 -313 108
-320 290 101 76 177 139 325 139 328 0 3 -14 4 -31 2 -30 -3 -33 -9 -125 -222
-51 -121 -97 -223 -102 -228 -4 -4 -41 72 -81 170 -90 215 -109 248 -164 273
-49 22 -157 27 -157 6z"/>
<path d="M5540 3230 c0 -13 7 -20 20 -20 37 0 44 -35 50 -250 5 -184 8 -209
27 -245 49 -93 112 -125 242 -125 78 0 95 3 142 28 45 24 59 37 84 87 l30 59
3 243 4 243 -31 0 -31 0 0 -218 c0 -243 -9 -298 -57 -344 -71 -68 -191 -64
-238 8 -32 49 -37 87 -44 307 -7 259 -1 247 -123 247 -71 0 -78 -2 -78 -20z"/>
<path d="M6192 3233 c2 -11 14 -19 30 -21 15 -2 37 -15 48 -29 19 -24 20 -40
20 -304 l0 -279 30 0 30 0 2 231 3 231 200 -236 c171 -202 204 -236 228 -236
l27 0 0 330 0 330 -30 0 -30 0 -2 -216 -3 -216 -174 202 c-118 137 -185 207
-207 216 -18 8 -65 14 -104 14 -63 0 -71 -2 -68 -17z"/>
<path d="M6950 2947 c0 -369 -8 -347 121 -347 97 0 117 14 57 41 -23 10 -35
23 -39 44 -4 17 -7 150 -8 298 l-1 267 -65 0 -65 0 0 -303z"/>
<path d="M7800 3231 c0 -14 8 -21 27 -23 49 -6 53 -28 53 -330 l0 -278 210 0
c239 0 218 -8 259 97 19 48 19 52 3 58 -11 4 -21 0 -27 -10 -47 -79 -82 -95
-210 -95 l-95 0 0 130 0 130 125 0 125 0 0 25 0 25 -125 0 -125 0 0 121 0 121
99 -4 c116 -4 150 -20 164 -81 7 -28 14 -37 29 -37 19 0 20 5 16 64 -7 109 2
106 -285 106 -234 0 -243 -1 -243 -19z"/>
<path d="M8390 3231 c0 -16 6 -21 25 -21 46 0 50 -23 53 -327 l4 -283 64 0 64
0 0 145 c0 188 8 190 106 27 48 -78 85 -128 113 -149 39 -30 49 -33 112 -33
61 0 69 2 69 19 0 11 -12 23 -29 31 -45 18 -66 46 -187 251 -2 4 21 19 51 33
69 35 95 74 95 148 0 71 -28 114 -95 148 -47 24 -60 25 -247 28 -195 3 -198 3
-198 -17z m356 -65 c30 -30 34 -40 34 -85 0 -94 -47 -141 -140 -141 l-40 0 0
130 0 130 56 0 c50 0 59 -3 90 -34z"/>
<path d="M9602 2939 c4 -365 -6 -339 125 -339 67 0 83 3 83 15 0 8 -11 17 -25
21 -14 3 -30 14 -35 24 -6 11 -10 138 -10 304 l0 286 -70 0 -71 0 3 -311z"/>
<path d="M9854 3229 c-12 -14 -19 -40 -22 -85 -4 -58 -2 -64 15 -64 14 0 22
11 31 44 13 51 53 76 121 76 l41 0 0 -300 0 -300 70 0 70 0 0 300 0 300 105 0
105 0 0 25 0 25 -258 0 c-249 0 -260 -1 -278 -21z"/>
<path d="M10605 3241 c-4 -8 -257 -571 -282 -628 -3 -9 5 -13 26 -13 29 0 33
5 70 85 l40 85 128 0 128 -1 27 -59 c37 -82 85 -113 176 -114 56 -1 67 2 70
17 2 11 -3 17 -14 17 -41 0 -79 66 -194 343 -110 265 -116 277 -142 277 -15 0
-29 -4 -33 -9z m36 -298 l46 -108 -95 -3 c-52 -1 -96 -1 -99 1 -5 6 88 217 96
217 4 0 27 -48 52 -107z"/>
<path d="M1568 3183 c-30 -8 -41 -67 -36 -207 4 -130 4 -132 43 -205 54 -101
92 -141 138 -141 42 0 87 18 87 35 0 6 -16 38 -37 71 -90 147 -93 153 -93 237
l0 77 145 0 145 0 0 -200 0 -200 69 0 69 0 7 97 c4 54 5 167 3 252 -5 145 -7
156 -28 173 -20 16 -45 18 -259 17 -130 -1 -244 -3 -253 -6z"/>
<path d="M2372 3174 c-22 -15 -22 -18 -22 -270 l0 -254 64 0 63 0 6 83 c4 45
7 135 7 200 l0 117 145 0 145 0 0 -79 0 -79 -66 -111 c-65 -108 -66 -112 -49
-131 13 -14 31 -20 63 -20 38 0 50 5 76 34 18 18 51 71 75 118 l43 84 -4 143
c-4 195 18 181 -287 181 -198 0 -240 -3 -259 -16z"/>
<path d="M1177 2958 c-15 -12 -182 -290 -227 -378 -26 -51 -25 -82 3 -107 21
-19 374 -225 408 -238 12 -4 24 9 47 53 17 33 29 62 26 65 -4 3 -80 48 -170
99 -121 69 -163 97 -158 108 3 8 34 66 70 128 l66 112 61 -32 c73 -39 118
-101 204 -276 0 -2 15 4 32 12 68 36 67 103 -5 231 -47 84 -52 89 -132 136
-104 62 -178 99 -195 99 -7 0 -21 -6 -30 -12z"/>
<path d="M3205 2958 c-45 -17 -196 -107 -228 -137 -16 -14 -48 -62 -73 -107
-53 -98 -59 -150 -19 -189 44 -45 58 -35 124 84 61 110 80 130 157 169 l42 21
71 -119 c39 -65 71 -123 71 -128 0 -6 -46 -36 -102 -67 -57 -32 -133 -75 -170
-97 l-68 -39 32 -57 c17 -31 33 -58 34 -60 6 -8 386 209 422 241 38 35 29 66
-81 255 -133 228 -127 219 -154 231 -13 6 -25 11 -26 10 -1 0 -15 -5 -32 -11z"/>
<path d="M762 2243 c-28 -24 -230 -381 -238 -420 -8 -42 13 -60 153 -138 l108
-60 110 0 c156 0 195 20 195 99 l0 36 -132 0 -131 0 -63 35 c-35 20 -65 39
-68 43 -4 7 119 230 136 248 4 4 69 -29 145 -74 149 -86 203 -115 207 -110 16
19 56 98 56 109 0 18 -402 249 -433 249 -14 0 -34 -8 -45 -17z"/>
<path d="M3604 2250 c-11 -4 -72 -38 -135 -75 -63 -37 -144 -85 -181 -106 -37
-22 -70 -44 -73 -49 -10 -16 55 -122 71 -116 8 3 82 46 166 96 83 49 155 90
159 90 8 0 50 -65 109 -170 l42 -75 -24 -18 c-12 -11 -44 -30 -70 -43 -43 -22
-60 -24 -178 -24 l-130 0 0 -36 c0 -79 81 -113 241 -102 60 5 81 12 174 64
139 77 159 95 151 137 -6 31 -159 308 -218 395 -30 44 -56 52 -104 32z"/>
<path d="M5520 2171 c0 -16 6 -21 25 -21 14 0 34 -9 45 -20 19 -19 20 -33 20
-305 l0 -285 30 0 30 0 2 232 3 232 200 -236 c170 -201 204 -237 228 -237 l27
-1 0 330 0 330 -30 0 -30 0 -2 -215 -3 -214 -168 194 c-92 108 -180 203 -195
213 -17 11 -52 18 -104 21 -74 3 -78 2 -78 -18z"/>
<path d="M6481 2171 c-9 -17 -265 -586 -278 -619 -4 -10 3 -13 27 -10 30 3 35
9 69 85 l36 83 127 0 128 0 29 -57 c16 -32 38 -66 49 -76 30 -27 89 -46 145
-47 40 0 47 3 47 19 0 11 -9 22 -20 26 -39 12 -67 65 -180 338 -110 266 -116
277 -142 277 -17 0 -31 -7 -37 -19z m40 -291 l47 -110 -100 0 c-91 0 -100 2
-94 18 19 52 92 209 95 206 3 -2 26 -54 52 -114z"/>
<path d="M6840 2170 c0 -14 7 -20 24 -20 49 0 51 -12 54 -322 l3 -288 65 0 64
0 0 155 0 155 129 0 129 0 4 -141 c4 -171 2 -169 125 -169 67 0 83 3 83 15 0
8 -11 17 -25 21 -14 3 -30 14 -35 24 -6 11 -10 138 -10 304 l0 286 -70 0 -70
0 0 -145 0 -145 -130 0 -130 0 0 125 c0 161 -3 165 -125 165 -78 0 -85 -2 -85
-20z"/>
<path d="M7540 2172 c0 -15 8 -22 27 -24 49 -6 53 -28 53 -330 l0 -278 159 0
c211 0 269 16 352 99 67 67 89 125 89 232 0 137 -69 240 -196 290 -54 21 -77
23 -271 27 -208 4 -213 3 -213 -16z m378 -48 c77 -32 124 -100 141 -203 20
-126 -24 -248 -112 -306 -32 -21 -114 -36 -153 -29 l-34 6 0 274 0 274 60 0
c33 0 77 -7 98 -16z"/>
<path d="M8250 2170 c0 -14 7 -20 23 -20 52 -1 52 3 55 -315 l3 -295 267 0
267 0 37 83 37 82 129 3 130 3 17 -46 c33 -84 121 -141 210 -133 51 4 59 30
15 48 -42 17 -60 52 -185 353 -104 248 -109 257 -135 257 -30 0 -28 5 -226
-443 -43 -98 -80 -174 -82 -168 -2 7 -61 11 -172 11 l-169 0 -3 279 c-4 339 4
321 -130 321 -81 0 -88 -2 -88 -20z m873 -284 c26 -61 45 -111 43 -113 -2 -2
-47 -2 -99 -1 l-96 3 40 90 c23 50 45 101 50 114 5 13 11 22 13 20 2 -2 24
-53 49 -113z"/>
<path d="M9412 2174 c-19 -13 -22 -24 -22 -85 0 -61 2 -70 17 -67 10 2 20 17
24 37 11 53 39 74 109 79 l60 4 0 -301 0 -301 70 0 70 0 0 300 0 300 100 0
100 0 0 25 0 25 -253 0 c-212 0 -256 -2 -275 -16z"/>
<path d="M9950 2171 c0 -12 9 -20 29 -24 38 -8 41 -22 41 -201 0 -257 30 -343
133 -391 43 -21 67 -25 142 -25 106 0 156 19 202 74 50 61 55 91 60 349 l5
237 -30 0 -30 0 -4 -232 c-3 -225 -4 -235 -28 -282 -33 -66 -63 -87 -136 -92
-73 -6 -113 15 -146 78 -21 40 -23 60 -28 264 -6 273 -2 264 -127 264 -74 0
-83 -2 -83 -19z"/>
<path d="M10620 2170 c0 -15 7 -20 24 -20 55 0 56 -6 56 -321 l0 -289 240 0
240 0 0 25 0 25 -170 0 -169 0 -3 279 c-4 339 4 321 -130 321 -81 0 -88 -2
-88 -20z"/>
<path d="M11430 2170 c0 -13 7 -20 19 -20 41 0 46 -24 51 -234 5 -190 7 -204
31 -257 45 -95 109 -129 246 -129 122 0 182 30 224 112 28 55 39 152 39 361
l0 187 -29 0 -29 0 -3 -232 c-4 -225 -5 -235 -29 -283 -19 -38 -36 -55 -70
-73 -60 -31 -138 -27 -176 9 -52 47 -58 77 -64 315 -6 273 -2 264 -127 264
-76 0 -83 -2 -83 -20z"/>
<path d="M12100 2170 c0 -15 7 -20 24 -20 53 0 56 -19 56 -327 l0 -283 268 0
268 0 35 83 36 82 130 3 131 3 17 -45 c34 -89 117 -142 210 -134 51 4 59 30
15 48 -42 17 -61 54 -186 353 l-107 258 -29 -3 c-28 -3 -35 -15 -166 -310 -75
-169 -138 -303 -140 -298 -2 6 -74 10 -172 10 l-169 0 -3 279 c-4 339 4 321
-130 321 -81 0 -88 -2 -88 -20z m823 -398 c-52 -1 -97 -1 -99 1 -2 2 14 44 37
93 23 49 46 100 51 114 9 23 14 15 58 -90 l49 -115 -96 -3z"/>
<path d="M13350 1865 l0 -325 30 0 30 0 0 251 0 252 125 -252 c109 -220 127
-251 148 -251 20 0 33 25 122 241 l100 241 5 -209 c4 -186 7 -212 25 -243 26
-44 70 -69 134 -77 47 -5 51 -4 51 14 0 12 -8 23 -20 26 -44 11 -50 56 -50
367 l0 290 -72 0 -73 0 -95 -230 c-52 -126 -97 -230 -100 -230 -3 0 -56 104
-117 230 l-111 230 -66 0 -66 0 0 -325z"/>
<path d="M14396 2138 c-65 -145 -231 -518 -247 -555 l-18 -43 30 0 c28 0 33 6
70 85 l39 85 129 0 128 0 18 -46 c33 -86 105 -134 204 -134 34 0 41 3 41 19 0
11 -9 23 -20 26 -37 12 -67 68 -181 343 -110 264 -114 272 -141 272 -24 0 -32
-7 -52 -52z m56 -255 l45 -108 -95 -3 c-52 -1 -96 -1 -98 1 -6 6 89 217 97
217 3 0 27 -48 51 -107z"/>
<path d="M803 1560 c-44 -9 -221 -106 -260 -143 -40 -36 -38 -42 109 -297 50
-85 97 -163 105 -172 28 -31 73 -21 169 35 50 28 141 81 202 117 61 36 112 71
112 78 0 7 -13 35 -28 61 l-28 49 -31 -13 c-18 -8 -93 -50 -168 -95 -76 -45
-142 -79 -149 -77 -6 3 -42 58 -79 123 l-68 118 23 18 c13 10 47 30 76 45 52
25 57 26 178 20 l124 -6 0 44 c0 36 -5 48 -31 69 -27 23 -40 26 -102 26 -40 0
-81 2 -92 4 -11 2 -39 0 -62 -4z"/>
<path d="M3395 1537 c-20 -16 -28 -35 -32 -69 l-5 -46 125 5 c121 6 128 5 179
-21 29 -14 64 -34 77 -44 l23 -19 -68 -117 c-37 -65 -73 -120 -79 -122 -6 -3
-70 30 -141 72 -138 82 -204 117 -208 112 -2 -2 -15 -30 -30 -62 -21 -46 -24
-61 -14 -68 7 -4 99 -57 204 -118 198 -114 236 -127 266 -92 18 20 177 291
213 363 14 27 25 57 25 68 0 26 -43 60 -159 126 l-99 55 -125 0 c-117 0 -128
-2 -152 -23z"/>
<path d="M6370 1141 c-90 -29 -165 -96 -204 -180 -17 -38 -21 -65 -21 -156 0
-98 3 -116 26 -165 30 -62 86 -123 141 -151 78 -40 228 -40 305 0 56 28 112
88 142 151 23 49 26 67 26 165 0 126 -15 172 -81 245 -60 66 -123 93 -224 96
-47 2 -96 0 -110 -5z m153 -55 c80 -33 121 -129 121 -281 0 -70 -5 -116 -18
-153 -66 -194 -265 -190 -322 6 -21 69 -23 207 -5 279 31 126 127 190 224 149z"/>
<path d="M7080 1141 c-152 -50 -240 -187 -227 -356 13 -171 132 -301 296 -323
82 -12 204 3 268 33 l53 24 0 93 c0 118 13 166 45 174 14 3 25 12 25 20 0 19
-89 19 -134 0 -57 -24 -66 -47 -66 -168 l0 -108 -27 -11 c-40 -15 -154 -15
-183 0 -94 49 -136 151 -128 310 6 111 23 160 76 214 95 98 272 61 315 -66 10
-31 20 -43 37 -45 22 -4 23 -2 16 54 -9 75 -24 98 -89 131 -45 23 -66 27 -152
30 -55 1 -111 -1 -125 -6z"/>
<path d="M5480 1116 c0 -8 11 -17 25 -20 39 -10 89 -67 190 -219 l95 -142 0
-127 0 -128 70 0 70 0 0 144 0 144 101 163 c136 220 127 199 82 199 l-38 0
-90 -145 c-49 -80 -92 -145 -96 -145 -3 0 -35 44 -70 97 -117 178 -137 193
-259 193 -62 0 -80 -3 -80 -14z"/>
<path d="M7480 1121 c0 -4 22 -22 48 -38 40 -25 68 -59 155 -189 l107 -158 0
-128 0 -128 70 0 70 0 0 143 0 143 99 161 c137 223 129 203 84 203 l-38 0 -89
-145 c-49 -80 -92 -145 -96 -145 -5 0 -36 44 -70 98 -68 106 -111 156 -152
178 -30 15 -188 20 -188 5z"/>
<path d="M8355 1121 c-4 -8 -257 -571 -282 -628 -3 -9 5 -13 26 -13 29 0 33 5
70 85 l40 85 128 0 128 -1 27 -59 c37 -82 85 -113 176 -114 56 -1 67 2 70 17
2 11 -3 17 -14 17 -41 0 -79 66 -194 343 -110 265 -116 277 -142 277 -15 0
-29 -4 -33 -9z m36 -298 l46 -108 -95 -3 c-52 -1 -96 -1 -99 1 -5 6 88 217 96
217 4 0 27 -48 52 -107z"/>
<path d="M8710 1110 c0 -14 7 -20 24 -20 49 0 51 -12 54 -322 l3 -288 70 0 69
0 0 128 0 127 103 -107 c125 -131 175 -158 282 -157 121 2 123 3 164 96 l36
83 128 0 127 0 26 -55 c42 -88 101 -125 202 -125 35 0 42 3 42 19 0 11 -8 22
-18 25 -40 13 -68 64 -180 333 -115 272 -118 278 -147 281 l-30 2 -135 -306
c-74 -168 -138 -308 -142 -310 -19 -12 -85 40 -221 175 -82 81 -145 151 -143
158 3 7 39 55 81 107 80 99 112 122 189 132 37 5 46 11 46 26 0 19 -6 20 -74
16 -93 -4 -115 -20 -241 -176 l-90 -111 -6 107 c-4 59 -7 115 -8 125 0 9 -10
26 -21 37 -17 17 -33 20 -105 20 -78 0 -85 -2 -85 -20z m988 -283 c23 -54 42
-103 42 -108 0 -5 -43 -9 -96 -9 -87 0 -96 2 -90 18 25 67 92 209 97 204 3 -4
24 -51 47 -105z"/>
<path d="M10020 1111 c0 -14 8 -21 28 -23 45 -5 51 -42 51 -340 l1 -268 65 0
65 0 0 145 c0 132 2 145 18 145 11 0 30 -22 51 -57 124 -211 159 -243 263
-243 60 0 68 2 68 19 0 11 -12 23 -29 31 -45 18 -64 43 -187 252 -2 3 20 18
51 32 70 32 95 70 95 147 0 72 -27 115 -95 149 -47 24 -60 25 -247 28 -193 3
-198 3 -198 -17z m356 -65 c34 -34 40 -55 35 -120 -6 -64 -61 -106 -141 -106
l-40 0 0 130 0 130 56 0 c50 0 59 -3 90 -34z"/>
<path d="M10640 1110 c-16 -16 -20 -33 -20 -85 0 -58 2 -65 20 -65 15 0 20 7
20 26 0 58 48 94 125 94 l45 0 0 -300 0 -300 70 0 70 0 0 300 0 300 100 0 100
0 0 25 0 25 -255 0 c-242 0 -256 -1 -275 -20z"/>
<path d="M11252 812 c-78 -176 -142 -322 -142 -326 0 -3 13 -6 29 -6 26 0 31
7 66 85 l38 85 128 0 128 0 22 -50 c37 -86 106 -130 207 -130 34 0 42 3 42 18
0 11 -11 24 -24 30 -42 19 -67 65 -182 340 -153 365 -126 369 -312 -46z m173
14 c26 -59 44 -110 42 -112 -2 -3 -47 -3 -99 -2 l-95 3 51 112 c27 62 51 111
52 110 2 -1 24 -51 49 -111z"/>
<path d="M3041 897 c-20 -35 -29 -63 -23 -65 6 -2 66 -35 134 -74 68 -39 140
-81 160 -92 21 -12 38 -25 38 -31 0 -5 -29 -59 -65 -119 -35 -60 -66 -114 -68
-120 -2 -7 -30 3 -71 24 -66 35 -68 36 -134 152 -72 127 -85 136 -127 93 -38
-37 -33 -87 16 -183 51 -99 78 -125 209 -201 112 -65 136 -71 168 -44 34 29
242 397 242 428 0 17 -10 36 -27 52 -27 24 -356 217 -398 233 -18 7 -25 0 -54
-53z"/>
<path d="M1248 891 c-287 -160 -318 -182 -318 -230 0 -33 229 -421 256 -433
33 -15 56 -6 183 69 112 67 114 69 164 151 40 65 51 94 55 136 4 48 1 57 -21
80 -45 45 -57 37 -127 -89 -61 -111 -65 -116 -126 -150 -34 -19 -65 -35 -67
-35 -7 0 -147 236 -147 247 0 4 75 50 168 102 92 52 168 96 170 97 8 5 -61
114 -72 114 -6 0 -59 -27 -118 -59z"/>
<path d="M2481 894 c0 -11 3 -14 6 -6 3 7 2 16 -1 19 -3 4 -6 -2 -5 -13z"/>
<path d="M1962 640 c0 -14 2 -19 5 -12 2 6 2 18 0 25 -3 6 -5 1 -5 -13z"/>
<path d="M1670 545 c-34 -18 -127 -176 -135 -229 -4 -24 -5 -98 -3 -165 3
-108 5 -124 22 -137 30 -22 492 -20 524 2 22 15 22 18 22 270 l0 254 -65 0
-65 0 0 -200 0 -200 -150 0 -150 0 -1 48 c-2 91 3 108 67 217 35 60 64 114 64
121 0 15 -45 34 -78 34 -15 -1 -38 -7 -52 -15z"/>
<path d="M2670 542 c-22 -18 -22 -19 -5 -53 10 -19 38 -65 64 -104 44 -68 46
-73 49 -158 l4 -87 -146 0 -146 0 0 200 0 200 -70 0 -70 0 0 -250 c0 -237 1
-251 20 -270 19 -19 33 -20 263 -20 194 0 247 3 263 14 17 13 19 29 22 148 2
82 -1 148 -8 172 -20 67 -93 188 -125 207 -38 24 -86 24 -115 1z"/>
</g>
</svg>
